<?xml version="1.0" encoding="UTF-8"?>
<!DOCTYPE svg PUBLIC "-//W3C//DTD SVG 1.1//EN" "http://www.w3.org/Graphics/SVG/1.1/DTD/svg11.dtd">
<svg xmlns="http://www.w3.org/2000/svg" version="1.1" width="400px" height="225px" style="shape-rendering:geometricPrecision; text-rendering:geometricPrecision; image-rendering:optimizeQuality; fill-rule:evenodd; clip-rule:evenodd" xmlns:xlink="http://www.w3.org/1999/xlink">
<g><path style="opacity:1" fill="#fefffe" d="M 12.5,15.5 C 33.7422,15.1732 54.9089,15.5065 76,16.5C 76.5,47.4982 76.6666,78.4982 76.5,109.5C 66.5,109.5 56.5,109.5 46.5,109.5C 46.6666,87.8308 46.5,66.1641 46,44.5C 45,43.1667 44,43.1667 43,44.5C 42.5,66.1641 42.3334,87.8308 42.5,109.5C 32.5,109.5 22.5,109.5 12.5,109.5C 12.5,78.1667 12.5,46.8333 12.5,15.5 Z"/></g>
<g><path style="opacity:1" fill="#fefffe" d="M 81.5,15.5 C 137.167,15.5 192.833,15.5 248.5,15.5C 248.5,25.5 248.5,35.5 248.5,45.5C 237.167,45.5 225.833,45.5 214.5,45.5C 214.5,61.1667 214.5,76.8333 214.5,92.5C 204.5,92.5 194.5,92.5 184.5,92.5C 184.5,76.8333 184.5,61.1667 184.5,45.5C 171.5,45.5 158.5,45.5 145.5,45.5C 145.5,66.8333 145.5,88.1667 145.5,109.5C 135.5,109.5 125.5,109.5 115.5,109.5C 115.5,100.833 115.5,92.1667 115.5,83.5C 114.167,83.5 112.833,83.5 111.5,83.5C 111.5,92.1667 111.5,100.833 111.5,109.5C 101.5,109.5 91.5,109.5 81.5,109.5C 81.5,78.1667 81.5,46.8333 81.5,15.5 Z M 112.5,43.5 C 113.496,43.4142 114.329,43.7476 115,44.5C 115.499,50.4908 115.666,56.4908 115.5,62.5C 114.167,62.5 112.833,62.5 111.5,62.5C 111.209,56.077 111.542,49.7436 112.5,43.5 Z"/></g>
<g><path style="opacity:1" fill="#fefffe" d="M 253.5,15.5 C 274.833,15.5 296.167,15.5 317.5,15.5C 317.5,46.8333 317.5,78.1667 317.5,109.5C 307.5,109.5 297.5,109.5 287.5,109.5C 287.5,100.833 287.5,92.1667 287.5,83.5C 286.167,83.5 284.833,83.5 283.5,83.5C 283.5,92.1667 283.5,100.833 283.5,109.5C 273.5,109.5 263.5,109.5 253.5,109.5C 253.5,78.1667 253.5,46.8333 253.5,15.5 Z M 284.5,43.5 C 285.496,43.4142 286.329,43.7476 287,44.5C 287.499,50.4908 287.666,56.4908 287.5,62.5C 286.167,62.5 284.833,62.5 283.5,62.5C 283.209,56.077 283.542,49.7436 284.5,43.5 Z"/></g>
<g><path style="opacity:1" fill="#fefffe" d="M 322.5,15.5 C 343.546,15.1782 364.546,15.5115 385.5,16.5C 386.5,47.4928 386.833,78.4928 386.5,109.5C 376.5,109.5 366.5,109.5 356.5,109.5C 356.667,87.8308 356.5,66.1641 356,44.5C 355,43.1667 354,43.1667 353,44.5C 352.5,66.1641 352.333,87.8308 352.5,109.5C 342.5,109.5 332.5,109.5 322.5,109.5C 322.5,78.1667 322.5,46.8333 322.5,15.5 Z"/></g>
<g><path style="opacity:1" fill="#fefffe" d="M 150.5,49.5 C 160.5,49.5 170.5,49.5 180.5,49.5C 180.5,65.5 180.5,81.5 180.5,97.5C 193.5,97.5 206.5,97.5 219.5,97.5C 219.5,81.5 219.5,65.5 219.5,49.5C 229.167,49.5 238.833,49.5 248.5,49.5C 248.5,91.1667 248.5,132.833 248.5,174.5C 238.833,174.5 229.167,174.5 219.5,174.5C 219.5,158.5 219.5,142.5 219.5,126.5C 206.5,126.5 193.5,126.5 180.5,126.5C 180.5,142.5 180.5,158.5 180.5,174.5C 170.5,174.5 160.5,174.5 150.5,174.5C 150.5,132.833 150.5,91.1667 150.5,49.5 Z"/></g>
<g><path style="opacity:1" fill="#fefffe" d="M 12.5,114.5 C 22.5,114.5 32.5,114.5 42.5,114.5C 42.3334,136.169 42.5,157.836 43,179.5C 44,180.833 45,180.833 46,179.5C 46.5,157.836 46.6666,136.169 46.5,114.5C 56.5,114.5 66.5,114.5 76.5,114.5C 76.5,145.833 76.5,177.167 76.5,208.5C 55.8306,208.667 35.164,208.5 14.5,208C 14,207.5 13.5,207 13,206.5C 12.5,175.835 12.3334,145.168 12.5,114.5 Z"/></g>
<g><path style="opacity:1" fill="#fefffe" d="M 81.5,114.5 C 91.5,114.5 101.5,114.5 111.5,114.5C 111.5,123.167 111.5,131.833 111.5,140.5C 112.833,140.5 114.167,140.5 115.5,140.5C 115.5,131.833 115.5,123.167 115.5,114.5C 125.5,114.5 135.5,114.5 145.5,114.5C 145.5,145.833 145.5,177.167 145.5,208.5C 124.167,208.5 102.833,208.5 81.5,208.5C 81.5,177.167 81.5,145.833 81.5,114.5 Z M 111.5,161.5 C 112.833,161.5 114.167,161.5 115.5,161.5C 115.666,167.509 115.499,173.509 115,179.5C 114,180.833 113,180.833 112,179.5C 111.501,173.509 111.334,167.509 111.5,161.5 Z"/></g>
<g><path style="opacity:1" fill="#fefffe" d="M 253.5,114.5 C 263.5,114.5 273.5,114.5 283.5,114.5C 283.5,123.167 283.5,131.833 283.5,140.5C 284.833,140.5 286.167,140.5 287.5,140.5C 287.5,131.833 287.5,123.167 287.5,114.5C 297.5,114.5 307.5,114.5 317.5,114.5C 317.5,145.833 317.5,177.167 317.5,208.5C 261.833,208.5 206.167,208.5 150.5,208.5C 150.5,198.5 150.5,188.5 150.5,178.5C 161.833,178.5 173.167,178.5 184.5,178.5C 184.5,162.833 184.5,147.167 184.5,131.5C 194.5,131.5 204.5,131.5 214.5,131.5C 214.5,147.167 214.5,162.833 214.5,178.5C 227.5,178.5 240.5,178.5 253.5,178.5C 253.5,157.167 253.5,135.833 253.5,114.5 Z M 283.5,161.5 C 284.833,161.5 286.167,161.5 287.5,161.5C 287.666,167.509 287.499,173.509 287,179.5C 286,180.833 285,180.833 284,179.5C 283.501,173.509 283.334,167.509 283.5,161.5 Z"/></g>
<g><path style="opacity:1" fill="#fefffe" d="M 322.5,114.5 C 332.5,114.5 342.5,114.5 352.5,114.5C 352.333,136.169 352.5,157.836 353,179.5C 354,180.833 355,180.833 356,179.5C 356.5,157.836 356.667,136.169 356.5,114.5C 366.5,114.5 376.5,114.5 386.5,114.5C 386.5,145.833 386.5,177.167 386.5,208.5C 365.454,208.822 344.454,208.488 323.5,207.5C 322.5,176.507 322.167,145.507 322.5,114.5 Z"/></g>
</svg>
